<mxfile host="app.diagrams.net" modified="2021-04-14T21:30:28.421Z" agent="5.0 (Windows NT 10.0; Win64; x64) AppleWebKit/537.36 (KHTML, like Gecko) Chrome/89.0.4389.90 Safari/537.36 Edg/89.0.774.57" etag="j-EnvcjzFrUKjlxXCCvp" version="14.6.0" type="github">
  <diagram id="5pEAkdwxBJtGQmCrvHSt" name="Page-1">
    <mxGraphModel dx="1695" dy="1651" grid="1" gridSize="10" guides="1" tooltips="1" connect="1" arrows="1" fold="1" page="1" pageScale="1" pageWidth="827" pageHeight="1169" math="0" shadow="0">
      <root>
        <mxCell id="0" />
        <mxCell id="1" parent="0" />
        <mxCell id="PfxAvs7E1EtuIjm4O0Fs-66" style="edgeStyle=orthogonalEdgeStyle;rounded=0;orthogonalLoop=1;jettySize=auto;html=1;entryX=-0.006;entryY=-0.35;entryDx=0;entryDy=0;entryPerimeter=0;" edge="1" parent="1" source="PfxAvs7E1EtuIjm4O0Fs-2" target="PfxAvs7E1EtuIjm4O0Fs-20">
          <mxGeometry relative="1" as="geometry" />
        </mxCell>
        <mxCell id="PfxAvs7E1EtuIjm4O0Fs-2" value="Empresa" style="swimlane;fontStyle=1;align=center;verticalAlign=top;childLayout=stackLayout;horizontal=1;startSize=26;horizontalStack=0;resizeParent=1;resizeParentMax=0;resizeLast=0;collapsible=1;marginBottom=0;" vertex="1" parent="1">
          <mxGeometry x="-210" y="40" width="325" height="234" as="geometry" />
        </mxCell>
        <mxCell id="PfxAvs7E1EtuIjm4O0Fs-6" value="- nombre: String&amp;nbsp;" style="text;html=1;align=center;verticalAlign=middle;resizable=0;points=[];autosize=1;strokeColor=none;" vertex="1" parent="PfxAvs7E1EtuIjm4O0Fs-2">
          <mxGeometry y="26" width="325" height="20" as="geometry" />
        </mxCell>
        <mxCell id="PfxAvs7E1EtuIjm4O0Fs-7" value="- CUIT: String" style="text;html=1;align=center;verticalAlign=middle;resizable=0;points=[];autosize=1;strokeColor=none;" vertex="1" parent="PfxAvs7E1EtuIjm4O0Fs-2">
          <mxGeometry y="46" width="325" height="20" as="geometry" />
        </mxCell>
        <mxCell id="PfxAvs7E1EtuIjm4O0Fs-4" value="" style="line;strokeWidth=1;fillColor=none;align=left;verticalAlign=middle;spacingTop=-1;spacingLeft=3;spacingRight=3;rotatable=0;labelPosition=right;points=[];portConstraint=eastwest;" vertex="1" parent="PfxAvs7E1EtuIjm4O0Fs-2">
          <mxGeometry y="66" width="325" height="8" as="geometry" />
        </mxCell>
        <mxCell id="PfxAvs7E1EtuIjm4O0Fs-54" value="&lt;u&gt;+ new(String, String)&lt;/u&gt;" style="text;html=1;align=center;verticalAlign=middle;resizable=0;points=[];autosize=1;strokeColor=none;" vertex="1" parent="PfxAvs7E1EtuIjm4O0Fs-2">
          <mxGeometry y="74" width="325" height="20" as="geometry" />
        </mxCell>
        <mxCell id="PfxAvs7E1EtuIjm4O0Fs-55" value="+ contratar(Empleado): void" style="text;html=1;align=center;verticalAlign=middle;resizable=0;points=[];autosize=1;strokeColor=none;" vertex="1" parent="PfxAvs7E1EtuIjm4O0Fs-2">
          <mxGeometry y="94" width="325" height="20" as="geometry" />
        </mxCell>
        <mxCell id="PfxAvs7E1EtuIjm4O0Fs-56" value="+ totalSueldosBruto(): Float" style="text;html=1;align=center;verticalAlign=middle;resizable=0;points=[];autosize=1;strokeColor=none;" vertex="1" parent="PfxAvs7E1EtuIjm4O0Fs-2">
          <mxGeometry y="114" width="325" height="20" as="geometry" />
        </mxCell>
        <mxCell id="PfxAvs7E1EtuIjm4O0Fs-57" value="+ totalSueldosNeto(): Float" style="text;html=1;align=center;verticalAlign=middle;resizable=0;points=[];autosize=1;strokeColor=none;" vertex="1" parent="PfxAvs7E1EtuIjm4O0Fs-2">
          <mxGeometry y="134" width="325" height="20" as="geometry" />
        </mxCell>
        <mxCell id="PfxAvs7E1EtuIjm4O0Fs-58" value="+ totalRetenciones(): Float" style="text;html=1;align=center;verticalAlign=middle;resizable=0;points=[];autosize=1;strokeColor=none;" vertex="1" parent="PfxAvs7E1EtuIjm4O0Fs-2">
          <mxGeometry y="154" width="325" height="20" as="geometry" />
        </mxCell>
        <mxCell id="PfxAvs7E1EtuIjm4O0Fs-59" value="+ realizarLiquidacionDeSueldos(): void" style="text;html=1;align=center;verticalAlign=middle;resizable=0;points=[];autosize=1;strokeColor=none;" vertex="1" parent="PfxAvs7E1EtuIjm4O0Fs-2">
          <mxGeometry y="174" width="325" height="20" as="geometry" />
        </mxCell>
        <mxCell id="PfxAvs7E1EtuIjm4O0Fs-60" value="+ realizarLiquidacionDeSueldoPara(Empleado, Date): Recibo" style="text;html=1;align=center;verticalAlign=middle;resizable=0;points=[];autosize=1;strokeColor=none;" vertex="1" parent="PfxAvs7E1EtuIjm4O0Fs-2">
          <mxGeometry y="194" width="325" height="20" as="geometry" />
        </mxCell>
        <mxCell id="PfxAvs7E1EtuIjm4O0Fs-61" value="+ guardarRecibo(Recibo): void" style="text;html=1;align=center;verticalAlign=middle;resizable=0;points=[];autosize=1;strokeColor=none;" vertex="1" parent="PfxAvs7E1EtuIjm4O0Fs-2">
          <mxGeometry y="214" width="325" height="20" as="geometry" />
        </mxCell>
        <mxCell id="PfxAvs7E1EtuIjm4O0Fs-8" value="Empleado" style="swimlane;fontStyle=1;align=center;verticalAlign=top;childLayout=stackLayout;horizontal=1;startSize=26;horizontalStack=0;resizeParent=1;resizeParentMax=0;resizeLast=0;collapsible=1;marginBottom=0;" vertex="1" parent="1">
          <mxGeometry x="310" y="30" width="160" height="254" as="geometry" />
        </mxCell>
        <mxCell id="PfxAvs7E1EtuIjm4O0Fs-12" value="- nombre: String" style="text;html=1;align=center;verticalAlign=middle;resizable=0;points=[];autosize=1;strokeColor=none;" vertex="1" parent="PfxAvs7E1EtuIjm4O0Fs-8">
          <mxGeometry y="26" width="160" height="20" as="geometry" />
        </mxCell>
        <mxCell id="PfxAvs7E1EtuIjm4O0Fs-13" value="- direccion: String" style="text;html=1;align=center;verticalAlign=middle;resizable=0;points=[];autosize=1;strokeColor=none;" vertex="1" parent="PfxAvs7E1EtuIjm4O0Fs-8">
          <mxGeometry y="46" width="160" height="20" as="geometry" />
        </mxCell>
        <mxCell id="PfxAvs7E1EtuIjm4O0Fs-14" value="- estadoCivil: String" style="text;html=1;align=center;verticalAlign=middle;resizable=0;points=[];autosize=1;strokeColor=none;" vertex="1" parent="PfxAvs7E1EtuIjm4O0Fs-8">
          <mxGeometry y="66" width="160" height="20" as="geometry" />
        </mxCell>
        <mxCell id="PfxAvs7E1EtuIjm4O0Fs-15" value="- fechaDeNacimiento: Date" style="text;html=1;align=center;verticalAlign=middle;resizable=0;points=[];autosize=1;strokeColor=none;" vertex="1" parent="PfxAvs7E1EtuIjm4O0Fs-8">
          <mxGeometry y="86" width="160" height="20" as="geometry" />
        </mxCell>
        <mxCell id="PfxAvs7E1EtuIjm4O0Fs-16" value="- sueldoBasico: Float" style="text;html=1;align=center;verticalAlign=middle;resizable=0;points=[];autosize=1;strokeColor=none;" vertex="1" parent="PfxAvs7E1EtuIjm4O0Fs-8">
          <mxGeometry y="106" width="160" height="20" as="geometry" />
        </mxCell>
        <mxCell id="PfxAvs7E1EtuIjm4O0Fs-10" value="" style="line;strokeWidth=1;fillColor=none;align=left;verticalAlign=middle;spacingTop=-1;spacingLeft=3;spacingRight=3;rotatable=0;labelPosition=right;points=[];portConstraint=eastwest;" vertex="1" parent="PfxAvs7E1EtuIjm4O0Fs-8">
          <mxGeometry y="126" width="160" height="8" as="geometry" />
        </mxCell>
        <mxCell id="PfxAvs7E1EtuIjm4O0Fs-20" value="+ edad(): Int" style="text;html=1;align=center;verticalAlign=middle;resizable=0;points=[];autosize=1;strokeColor=none;" vertex="1" parent="PfxAvs7E1EtuIjm4O0Fs-8">
          <mxGeometry y="134" width="160" height="20" as="geometry" />
        </mxCell>
        <mxCell id="PfxAvs7E1EtuIjm4O0Fs-65" value="+ getNombre(): String" style="text;html=1;align=center;verticalAlign=middle;resizable=0;points=[];autosize=1;strokeColor=none;" vertex="1" parent="PfxAvs7E1EtuIjm4O0Fs-8">
          <mxGeometry y="154" width="160" height="20" as="geometry" />
        </mxCell>
        <mxCell id="PfxAvs7E1EtuIjm4O0Fs-64" value="+ getDireccion(): String" style="text;html=1;align=center;verticalAlign=middle;resizable=0;points=[];autosize=1;strokeColor=none;" vertex="1" parent="PfxAvs7E1EtuIjm4O0Fs-8">
          <mxGeometry y="174" width="160" height="20" as="geometry" />
        </mxCell>
        <mxCell id="PfxAvs7E1EtuIjm4O0Fs-33" value="+ sueldoNeto(): Float" style="text;html=1;align=center;verticalAlign=middle;resizable=0;points=[];autosize=1;strokeColor=none;" vertex="1" parent="PfxAvs7E1EtuIjm4O0Fs-8">
          <mxGeometry y="194" width="160" height="20" as="geometry" />
        </mxCell>
        <mxCell id="PfxAvs7E1EtuIjm4O0Fs-34" value="+ &lt;i&gt;sueldoBruto(): Float&lt;/i&gt;" style="text;html=1;align=center;verticalAlign=middle;resizable=0;points=[];autosize=1;strokeColor=none;" vertex="1" parent="PfxAvs7E1EtuIjm4O0Fs-8">
          <mxGeometry y="214" width="160" height="20" as="geometry" />
        </mxCell>
        <mxCell id="PfxAvs7E1EtuIjm4O0Fs-35" value="&lt;i&gt;+ retenciones(): Float&lt;/i&gt;" style="text;html=1;align=center;verticalAlign=middle;resizable=0;points=[];autosize=1;strokeColor=none;" vertex="1" parent="PfxAvs7E1EtuIjm4O0Fs-8">
          <mxGeometry y="234" width="160" height="20" as="geometry" />
        </mxCell>
        <mxCell id="PfxAvs7E1EtuIjm4O0Fs-18" value="empleados" style="text;html=1;align=center;verticalAlign=middle;resizable=0;points=[];autosize=1;strokeColor=none;" vertex="1" parent="1">
          <mxGeometry x="130" y="130" width="70" height="20" as="geometry" />
        </mxCell>
        <mxCell id="PfxAvs7E1EtuIjm4O0Fs-19" value="*" style="text;html=1;align=center;verticalAlign=middle;resizable=0;points=[];autosize=1;strokeColor=none;" vertex="1" parent="1">
          <mxGeometry x="280" y="130" width="20" height="20" as="geometry" />
        </mxCell>
        <mxCell id="PfxAvs7E1EtuIjm4O0Fs-21" value="EmpleadoPermanente" style="swimlane;fontStyle=1;align=center;verticalAlign=top;childLayout=stackLayout;horizontal=1;startSize=26;horizontalStack=0;resizeParent=1;resizeParentMax=0;resizeLast=0;collapsible=1;marginBottom=0;" vertex="1" parent="1">
          <mxGeometry x="600" y="-180" width="260" height="254" as="geometry" />
        </mxCell>
        <mxCell id="PfxAvs7E1EtuIjm4O0Fs-25" value="- cantHijos: Int" style="text;html=1;align=center;verticalAlign=middle;resizable=0;points=[];autosize=1;strokeColor=none;" vertex="1" parent="PfxAvs7E1EtuIjm4O0Fs-21">
          <mxGeometry y="26" width="260" height="20" as="geometry" />
        </mxCell>
        <mxCell id="PfxAvs7E1EtuIjm4O0Fs-26" value="- antiguedad: Int" style="text;html=1;align=center;verticalAlign=middle;resizable=0;points=[];autosize=1;strokeColor=none;" vertex="1" parent="PfxAvs7E1EtuIjm4O0Fs-21">
          <mxGeometry y="46" width="260" height="20" as="geometry" />
        </mxCell>
        <mxCell id="PfxAvs7E1EtuIjm4O0Fs-23" value="" style="line;strokeWidth=1;fillColor=none;align=left;verticalAlign=middle;spacingTop=-1;spacingLeft=3;spacingRight=3;rotatable=0;labelPosition=right;points=[];portConstraint=eastwest;" vertex="1" parent="PfxAvs7E1EtuIjm4O0Fs-21">
          <mxGeometry y="66" width="260" height="8" as="geometry" />
        </mxCell>
        <mxCell id="PfxAvs7E1EtuIjm4O0Fs-62" value="&lt;u&gt;+new(String, String, String, Date, Float, Int, Int)&lt;/u&gt;" style="text;html=1;align=center;verticalAlign=middle;resizable=0;points=[];autosize=1;strokeColor=none;" vertex="1" parent="PfxAvs7E1EtuIjm4O0Fs-21">
          <mxGeometry y="74" width="260" height="20" as="geometry" />
        </mxCell>
        <mxCell id="PfxAvs7E1EtuIjm4O0Fs-36" value="+ asignacionPorHijo(): Float" style="text;html=1;align=center;verticalAlign=middle;resizable=0;points=[];autosize=1;strokeColor=none;" vertex="1" parent="PfxAvs7E1EtuIjm4O0Fs-21">
          <mxGeometry y="94" width="260" height="20" as="geometry" />
        </mxCell>
        <mxCell id="PfxAvs7E1EtuIjm4O0Fs-37" value="+ sueldoBruto(): Float" style="text;html=1;align=center;verticalAlign=middle;resizable=0;points=[];autosize=1;strokeColor=none;" vertex="1" parent="PfxAvs7E1EtuIjm4O0Fs-21">
          <mxGeometry y="114" width="260" height="20" as="geometry" />
        </mxCell>
        <mxCell id="PfxAvs7E1EtuIjm4O0Fs-38" value="+ asignacionPorConyugue(): Float" style="text;html=1;align=center;verticalAlign=middle;resizable=0;points=[];autosize=1;strokeColor=none;" vertex="1" parent="PfxAvs7E1EtuIjm4O0Fs-21">
          <mxGeometry y="134" width="260" height="20" as="geometry" />
        </mxCell>
        <mxCell id="PfxAvs7E1EtuIjm4O0Fs-39" value="+ bonificacionPorAntiguedad(): Float" style="text;html=1;align=center;verticalAlign=middle;resizable=0;points=[];autosize=1;strokeColor=none;" vertex="1" parent="PfxAvs7E1EtuIjm4O0Fs-21">
          <mxGeometry y="154" width="260" height="20" as="geometry" />
        </mxCell>
        <mxCell id="PfxAvs7E1EtuIjm4O0Fs-40" value="+ retenciones(): Float" style="text;html=1;align=center;verticalAlign=middle;resizable=0;points=[];autosize=1;strokeColor=none;" vertex="1" parent="PfxAvs7E1EtuIjm4O0Fs-21">
          <mxGeometry y="174" width="260" height="20" as="geometry" />
        </mxCell>
        <mxCell id="PfxAvs7E1EtuIjm4O0Fs-41" value="+ retencionPorOS(): Float" style="text;html=1;align=center;verticalAlign=middle;resizable=0;points=[];autosize=1;strokeColor=none;" vertex="1" parent="PfxAvs7E1EtuIjm4O0Fs-21">
          <mxGeometry y="194" width="260" height="20" as="geometry" />
        </mxCell>
        <mxCell id="PfxAvs7E1EtuIjm4O0Fs-42" value="+ retencionPorHijo(): Float" style="text;html=1;align=center;verticalAlign=middle;resizable=0;points=[];autosize=1;strokeColor=none;" vertex="1" parent="PfxAvs7E1EtuIjm4O0Fs-21">
          <mxGeometry y="214" width="260" height="20" as="geometry" />
        </mxCell>
        <mxCell id="PfxAvs7E1EtuIjm4O0Fs-43" value="+ aportesJubilatorios(): Float" style="text;html=1;align=center;verticalAlign=middle;resizable=0;points=[];autosize=1;strokeColor=none;" vertex="1" parent="PfxAvs7E1EtuIjm4O0Fs-21">
          <mxGeometry y="234" width="260" height="20" as="geometry" />
        </mxCell>
        <mxCell id="PfxAvs7E1EtuIjm4O0Fs-27" value="EmpleadoTemporal" style="swimlane;fontStyle=1;align=center;verticalAlign=top;childLayout=stackLayout;horizontal=1;startSize=26;horizontalStack=0;resizeParent=1;resizeParentMax=0;resizeLast=0;collapsible=1;marginBottom=0;" vertex="1" parent="1">
          <mxGeometry x="580" y="180" width="320" height="284" as="geometry" />
        </mxCell>
        <mxCell id="PfxAvs7E1EtuIjm4O0Fs-31" value="- finDesignacion: Date" style="text;html=1;align=center;verticalAlign=middle;resizable=0;points=[];autosize=1;strokeColor=none;" vertex="1" parent="PfxAvs7E1EtuIjm4O0Fs-27">
          <mxGeometry y="26" width="320" height="20" as="geometry" />
        </mxCell>
        <mxCell id="PfxAvs7E1EtuIjm4O0Fs-32" value="- cantHorasExtras: Float" style="text;html=1;align=center;verticalAlign=middle;resizable=0;points=[];autosize=1;strokeColor=none;" vertex="1" parent="PfxAvs7E1EtuIjm4O0Fs-27">
          <mxGeometry y="46" width="320" height="20" as="geometry" />
        </mxCell>
        <mxCell id="PfxAvs7E1EtuIjm4O0Fs-45" value="+ gananciaPorHoraExtra(): Float" style="text;html=1;align=center;verticalAlign=middle;resizable=0;points=[];autosize=1;strokeColor=none;" vertex="1" parent="PfxAvs7E1EtuIjm4O0Fs-27">
          <mxGeometry y="66" width="320" height="20" as="geometry" />
        </mxCell>
        <mxCell id="PfxAvs7E1EtuIjm4O0Fs-29" value="" style="line;strokeWidth=1;fillColor=none;align=left;verticalAlign=middle;spacingTop=-1;spacingLeft=3;spacingRight=3;rotatable=0;labelPosition=right;points=[];portConstraint=eastwest;" vertex="1" parent="PfxAvs7E1EtuIjm4O0Fs-27">
          <mxGeometry y="86" width="320" height="8" as="geometry" />
        </mxCell>
        <mxCell id="PfxAvs7E1EtuIjm4O0Fs-63" value="&lt;u style=&quot;color: rgb(0 , 0 , 0) ; font-family: &amp;#34;helvetica&amp;#34; ; font-size: 12px ; font-style: normal ; font-weight: 400 ; letter-spacing: normal ; text-align: center ; text-indent: 0px ; text-transform: none ; word-spacing: 0px ; background-color: rgb(248 , 249 , 250)&quot;&gt;+new(String, String, String, Date, Float, Date, Float, Float)&lt;/u&gt;" style="text;whiteSpace=wrap;html=1;" vertex="1" parent="PfxAvs7E1EtuIjm4O0Fs-27">
          <mxGeometry y="94" width="320" height="30" as="geometry" />
        </mxCell>
        <mxCell id="PfxAvs7E1EtuIjm4O0Fs-44" value="+ sueldoBruto(): Float" style="text;html=1;align=center;verticalAlign=middle;resizable=0;points=[];autosize=1;strokeColor=none;" vertex="1" parent="PfxAvs7E1EtuIjm4O0Fs-27">
          <mxGeometry y="124" width="320" height="20" as="geometry" />
        </mxCell>
        <mxCell id="PfxAvs7E1EtuIjm4O0Fs-46" value="+ retenciones(): Float" style="text;html=1;align=center;verticalAlign=middle;resizable=0;points=[];autosize=1;strokeColor=none;" vertex="1" parent="PfxAvs7E1EtuIjm4O0Fs-27">
          <mxGeometry y="144" width="320" height="20" as="geometry" />
        </mxCell>
        <mxCell id="PfxAvs7E1EtuIjm4O0Fs-47" value="+ retencionPorOS(): Float" style="text;html=1;align=center;verticalAlign=middle;resizable=0;points=[];autosize=1;strokeColor=none;" vertex="1" parent="PfxAvs7E1EtuIjm4O0Fs-27">
          <mxGeometry y="164" width="320" height="20" as="geometry" />
        </mxCell>
        <mxCell id="PfxAvs7E1EtuIjm4O0Fs-48" value="+ superaLos50Años(): Bool" style="text;html=1;align=center;verticalAlign=middle;resizable=0;points=[];autosize=1;strokeColor=none;" vertex="1" parent="PfxAvs7E1EtuIjm4O0Fs-27">
          <mxGeometry y="184" width="320" height="20" as="geometry" />
        </mxCell>
        <mxCell id="PfxAvs7E1EtuIjm4O0Fs-49" value="+ retencionPorEdad(): Float" style="text;html=1;align=center;verticalAlign=middle;resizable=0;points=[];autosize=1;strokeColor=none;" vertex="1" parent="PfxAvs7E1EtuIjm4O0Fs-27">
          <mxGeometry y="204" width="320" height="20" as="geometry" />
        </mxCell>
        <mxCell id="PfxAvs7E1EtuIjm4O0Fs-50" value="+ aportesJubilatorios(): Float" style="text;html=1;align=center;verticalAlign=middle;resizable=0;points=[];autosize=1;strokeColor=none;" vertex="1" parent="PfxAvs7E1EtuIjm4O0Fs-27">
          <mxGeometry y="224" width="320" height="20" as="geometry" />
        </mxCell>
        <mxCell id="PfxAvs7E1EtuIjm4O0Fs-51" value="+valorPorHora(): Float" style="text;html=1;align=center;verticalAlign=middle;resizable=0;points=[];autosize=1;strokeColor=none;" vertex="1" parent="PfxAvs7E1EtuIjm4O0Fs-27">
          <mxGeometry y="244" width="320" height="20" as="geometry" />
        </mxCell>
        <mxCell id="PfxAvs7E1EtuIjm4O0Fs-52" value="+ retencionPorHora(): Float" style="text;html=1;align=center;verticalAlign=middle;resizable=0;points=[];autosize=1;strokeColor=none;" vertex="1" parent="PfxAvs7E1EtuIjm4O0Fs-27">
          <mxGeometry y="264" width="320" height="20" as="geometry" />
        </mxCell>
        <mxCell id="PfxAvs7E1EtuIjm4O0Fs-68" value="Extends" style="endArrow=block;endSize=16;endFill=0;html=1;exitX=0.012;exitY=0.2;exitDx=0;exitDy=0;exitPerimeter=0;entryX=1.025;entryY=0.85;entryDx=0;entryDy=0;entryPerimeter=0;" edge="1" parent="1" source="PfxAvs7E1EtuIjm4O0Fs-38" target="PfxAvs7E1EtuIjm4O0Fs-16">
          <mxGeometry width="160" relative="1" as="geometry">
            <mxPoint x="520" y="90" as="sourcePoint" />
            <mxPoint x="680" y="90" as="targetPoint" />
          </mxGeometry>
        </mxCell>
        <mxCell id="PfxAvs7E1EtuIjm4O0Fs-69" value="Extends" style="endArrow=block;endSize=16;endFill=0;html=1;" edge="1" parent="1">
          <mxGeometry width="160" relative="1" as="geometry">
            <mxPoint x="580" y="300" as="sourcePoint" />
            <mxPoint x="470" y="160" as="targetPoint" />
          </mxGeometry>
        </mxCell>
        <mxCell id="PfxAvs7E1EtuIjm4O0Fs-82" style="edgeStyle=orthogonalEdgeStyle;rounded=0;orthogonalLoop=1;jettySize=auto;html=1;entryX=0.513;entryY=1.05;entryDx=0;entryDy=0;entryPerimeter=0;" edge="1" parent="1" source="PfxAvs7E1EtuIjm4O0Fs-72" target="PfxAvs7E1EtuIjm4O0Fs-35">
          <mxGeometry relative="1" as="geometry" />
        </mxCell>
        <mxCell id="PfxAvs7E1EtuIjm4O0Fs-72" value="Recibo" style="swimlane;fontStyle=1;align=center;verticalAlign=top;childLayout=stackLayout;horizontal=1;startSize=26;horizontalStack=0;resizeParent=1;resizeParentMax=0;resizeLast=0;collapsible=1;marginBottom=0;" vertex="1" parent="1">
          <mxGeometry x="-127.5" y="390" width="160" height="94" as="geometry" />
        </mxCell>
        <mxCell id="PfxAvs7E1EtuIjm4O0Fs-77" value="- fechaDeEmision: Date" style="text;html=1;align=center;verticalAlign=middle;resizable=0;points=[];autosize=1;strokeColor=none;" vertex="1" parent="PfxAvs7E1EtuIjm4O0Fs-72">
          <mxGeometry y="26" width="160" height="20" as="geometry" />
        </mxCell>
        <mxCell id="PfxAvs7E1EtuIjm4O0Fs-74" value="" style="line;strokeWidth=1;fillColor=none;align=left;verticalAlign=middle;spacingTop=-1;spacingLeft=3;spacingRight=3;rotatable=0;labelPosition=right;points=[];portConstraint=eastwest;" vertex="1" parent="PfxAvs7E1EtuIjm4O0Fs-72">
          <mxGeometry y="46" width="160" height="8" as="geometry" />
        </mxCell>
        <mxCell id="PfxAvs7E1EtuIjm4O0Fs-78" value="&lt;u&gt;+ new(Empleado, Date)&lt;/u&gt;" style="text;html=1;align=center;verticalAlign=middle;resizable=0;points=[];autosize=1;strokeColor=none;" vertex="1" parent="PfxAvs7E1EtuIjm4O0Fs-72">
          <mxGeometry y="54" width="160" height="20" as="geometry" />
        </mxCell>
        <mxCell id="PfxAvs7E1EtuIjm4O0Fs-76" value="+ desglozarConceptos(): void" style="text;html=1;align=center;verticalAlign=middle;resizable=0;points=[];autosize=1;strokeColor=none;" vertex="1" parent="PfxAvs7E1EtuIjm4O0Fs-72">
          <mxGeometry y="74" width="160" height="20" as="geometry" />
        </mxCell>
        <mxCell id="PfxAvs7E1EtuIjm4O0Fs-79" style="edgeStyle=orthogonalEdgeStyle;rounded=0;orthogonalLoop=1;jettySize=auto;html=1;entryX=0.5;entryY=0;entryDx=0;entryDy=0;" edge="1" parent="1" source="PfxAvs7E1EtuIjm4O0Fs-61" target="PfxAvs7E1EtuIjm4O0Fs-72">
          <mxGeometry relative="1" as="geometry" />
        </mxCell>
        <mxCell id="PfxAvs7E1EtuIjm4O0Fs-80" value="recibos" style="text;html=1;align=center;verticalAlign=middle;resizable=0;points=[];autosize=1;strokeColor=none;" vertex="1" parent="1">
          <mxGeometry x="-30" y="290" width="50" height="20" as="geometry" />
        </mxCell>
        <mxCell id="PfxAvs7E1EtuIjm4O0Fs-81" value="*" style="text;html=1;align=center;verticalAlign=middle;resizable=0;points=[];autosize=1;strokeColor=none;" vertex="1" parent="1">
          <mxGeometry x="-30" y="350" width="20" height="20" as="geometry" />
        </mxCell>
        <mxCell id="PfxAvs7E1EtuIjm4O0Fs-83" value="beneficiario" style="text;html=1;align=center;verticalAlign=middle;resizable=0;points=[];autosize=1;strokeColor=none;" vertex="1" parent="1">
          <mxGeometry x="30" y="400" width="80" height="20" as="geometry" />
        </mxCell>
        <mxCell id="PfxAvs7E1EtuIjm4O0Fs-84" value="1" style="text;html=1;align=center;verticalAlign=middle;resizable=0;points=[];autosize=1;strokeColor=none;" vertex="1" parent="1">
          <mxGeometry x="350" y="290" width="20" height="20" as="geometry" />
        </mxCell>
      </root>
    </mxGraphModel>
  </diagram>
</mxfile>
